<svg width="40" height="40" viewBox="0 0 40 40" fill="none" xmlns="http://www.w3.org/2000/svg">
<g clip-path="url(#clip0_671_4419)">
<path d="M39.245 18.2163L21.7775 0.755063C21.5383 0.515255 21.2541 0.324993 20.9413 0.195175C20.6284 0.0653578 20.293 -0.00146484 19.9543 -0.00146484C19.6156 -0.00146484 19.2802 0.0653578 18.9674 0.195175C18.6546 0.324993 18.3704 0.515255 18.1312 0.755063L14.5112 4.38131L19.1137 8.97756C19.6544 8.79416 20.2356 8.76592 20.7915 8.89606C21.3473 9.02619 21.8556 9.30949 22.2587 9.71381C23.1187 10.5738 23.3587 11.8101 22.995 12.8776L27.4225 17.3113C27.9649 17.1224 28.5497 17.0906 29.1094 17.2195C29.6691 17.3485 30.1811 17.6329 30.5862 18.0401C31.7912 19.2376 31.7912 21.1776 30.5862 22.3763C30.3021 22.661 29.9646 22.8868 29.5931 23.0409C29.2216 23.195 28.8234 23.2743 28.4212 23.2743C28.019 23.2743 27.6208 23.195 27.2493 23.0409C26.8778 22.8868 26.5403 22.661 26.2562 22.3763C25.8295 21.9494 25.5378 21.4065 25.4174 20.815C25.2969 20.2236 25.353 19.6098 25.5787 19.0501L21.4312 14.9226V25.8013C21.7237 25.9451 22.0037 26.1401 22.245 26.3813C23.4362 27.5863 23.4362 29.5188 22.245 30.7176C21.6675 31.2927 20.8856 31.6157 20.0706 31.6157C19.2555 31.6157 18.4737 31.2927 17.8962 30.7176C17.5389 30.3601 17.2754 29.9198 17.1293 29.436C16.9833 28.9521 16.9591 28.4396 17.0589 27.9441C17.1587 27.4486 17.3795 26.9855 17.7016 26.5959C18.0237 26.2064 18.4371 25.9025 18.905 25.7113V14.7288C18.5317 14.5703 18.1917 14.343 17.9025 14.0588C17.4723 13.6298 17.18 13.0822 17.0628 12.4861C16.9457 11.8899 17.0091 11.2724 17.245 10.7126L12.7262 6.16881L0.747458 18.1413C0.268589 18.6273 0.000152588 19.2822 0.000152588 19.9644C0.000152588 20.6467 0.268589 21.3016 0.747458 21.7876L18.215 39.2488C18.4542 39.4886 18.7383 39.6789 19.0512 39.8087C19.364 39.9385 19.6994 40.0053 20.0381 40.0053C20.3768 40.0053 20.7122 39.9385 21.025 39.8087C21.3379 39.6789 21.622 39.4886 21.8612 39.2488L39.2437 21.8663C39.4835 21.6271 39.6738 21.343 39.8036 21.0301C39.9334 20.7173 40.0002 20.3819 40.0002 20.0432C40.0002 19.7045 39.9334 19.3691 39.8036 19.0563C39.6738 18.7434 39.4835 18.4593 39.2437 18.2201L39.245 18.2163Z" fill="black"/>
</g>
<defs>
<clipPath id="clip0_671_4419">
<rect width="40" height="40" fill="white"/>
</clipPath>
</defs>
</svg>
