<svg width="40" height="40" viewBox="0 0 40 40" fill="none" xmlns="http://www.w3.org/2000/svg">
<path d="M18.3332 13.3334H21.6665V15.0001H18.3332V13.3334ZM18.3332 6.66675H21.6665V8.33341H18.3332V6.66675ZM18.3332 16.6667H21.6665V18.3334H18.3332V16.6667Z" fill="black"/>
<path d="M34.9999 20V15C29.9189 14.999 24.996 16.7668 21.0765 20H18.9232C15.0037 16.7668 10.0808 14.999 4.99986 15V20C4.55783 20 4.13391 20.1756 3.82135 20.4882C3.50879 20.8007 3.33319 21.2246 3.33319 21.6667V25C3.33319 25.442 3.50879 25.866 3.82135 26.1785C4.13391 26.4911 4.55783 26.6667 4.99986 26.6667V33.3333C10.57 33.3282 15.9331 35.4437 19.9999 39.25C24.0709 35.4505 29.4312 33.3361 34.9999 33.3333V26.6667C35.4419 26.6667 35.8658 26.4911 36.1784 26.1785C36.4909 25.866 36.6665 25.442 36.6665 25V21.6667C36.6665 21.2246 36.4909 20.8007 36.1784 20.4882C35.8658 20.1756 35.4419 20 34.9999 20Z" fill="black"/>
<path d="M14.9999 8.33333C15.9203 8.33333 16.6665 7.58714 16.6665 6.66667C16.6665 5.74619 15.9203 5 14.9999 5C14.0794 5 13.3332 5.74619 13.3332 6.66667C13.3332 7.58714 14.0794 8.33333 14.9999 8.33333Z" fill="black"/>
<path d="M24.9999 8.33333C25.9203 8.33333 26.6665 7.58714 26.6665 6.66667C26.6665 5.74619 25.9203 5 24.9999 5C24.0794 5 23.3332 5.74619 23.3332 6.66667C23.3332 7.58714 24.0794 8.33333 24.9999 8.33333Z" fill="black"/>
<path d="M26.6665 13.3333H13.3332C12.0075 13.332 10.7365 12.8048 9.79912 11.8674C8.86172 10.93 8.33451 9.65901 8.33319 8.33333V5C8.33451 3.67432 8.86172 2.40332 9.79912 1.46593C10.7365 0.528533 12.0075 0.00132369 13.3332 0L26.6665 0C27.9922 0.00132369 29.2632 0.528533 30.2006 1.46593C31.138 2.40332 31.6652 3.67432 31.6665 5V8.33333C31.6652 9.65901 31.138 10.93 30.2006 11.8674C29.2632 12.8048 27.9922 13.332 26.6665 13.3333ZM13.3332 3.33333C12.8913 3.33377 12.4676 3.50951 12.1552 3.82198C11.8427 4.13444 11.667 4.55811 11.6665 5V8.33333C11.667 8.77523 11.8427 9.19889 12.1552 9.51136C12.4676 9.82382 12.8913 9.99956 13.3332 10H26.6665C27.1084 9.99956 27.5321 9.82382 27.8445 9.51136C28.157 9.19889 28.3328 8.77523 28.3332 8.33333V5C28.3328 4.55811 28.157 4.13444 27.8445 3.82198C27.5321 3.50951 27.1084 3.33377 26.6665 3.33333H13.3332Z" fill="black"/>
</svg>
