<svg width="40" height="40" viewBox="0 0 40 40" fill="none" xmlns="http://www.w3.org/2000/svg">
<path d="M12.2602 5.58602C13.6241 4.55305 15.2892 3.99591 17.0002 4.00002C17.4802 4.00002 17.8622 4.25002 18.0842 4.42202C18.3322 4.61802 18.5642 4.86802 18.7722 5.11802C18.9197 5.29715 19.0003 5.52199 19.0002 5.75402V13H16.8302C16.5943 12.3328 16.1301 11.7705 15.5197 11.4124C14.9093 11.0543 14.1919 10.9236 13.4944 11.0432C12.797 11.1629 12.1642 11.5253 11.7081 12.0664C11.2519 12.6074 11.0018 13.2923 11.0018 14C11.0018 14.7077 11.2519 15.3926 11.7081 15.9337C12.1642 16.4748 12.797 16.8371 13.4944 16.9568C14.1919 17.0765 14.9093 16.9457 15.5197 16.5877C16.1301 16.2296 16.5943 15.6672 16.8302 15H19.0002V33.83C19.0003 33.9781 18.9675 34.1243 18.9042 34.2582C18.8409 34.392 18.7487 34.5102 18.6342 34.604C17.7102 35.36 16.4742 36 15.0002 36C12.6282 36 10.8622 34.804 9.72018 33.374C8.8997 32.3551 8.33774 31.153 8.08218 29.87C7.30514 29.6628 6.58468 29.2835 5.97418 28.76C4.87018 27.814 4.00018 26.28 4.00018 24C4.00018 22.886 4.07418 21.88 4.24018 21H10.5002C11.7722 21 12.8202 21.95 12.9802 23.178C12.3151 23.4187 11.7564 23.8867 11.4028 24.4993C11.0492 25.1119 10.9235 25.8297 11.0477 26.526C11.172 27.2224 11.5383 27.8524 12.082 28.3048C12.6256 28.7573 13.3117 29.0031 14.019 28.9989C14.7263 28.9947 15.4094 28.7407 15.9476 28.2817C16.4858 27.8228 16.8446 27.1885 16.9605 26.4907C17.0764 25.793 16.9421 25.0767 16.5812 24.4683C16.2203 23.86 15.6561 23.3988 14.9882 23.166C14.9039 22.0334 14.3944 20.9746 13.5621 20.2019C12.7297 19.4293 11.6359 18.9999 10.5002 19H4.88218C5.18818 18.404 5.59818 17.9 6.13218 17.542C6.26726 17.4526 6.40901 17.3737 6.55618 17.306C5.98818 15.642 6.13618 13.694 6.68418 12.164C7.03418 11.18 7.59018 10.25 8.35418 9.63002C8.85818 9.22002 9.45818 8.95002 10.1142 8.89802C10.4022 7.53202 11.2102 6.40202 12.2602 5.58602ZM21.0002 29H22.5002C23.6937 29 24.8382 28.5259 25.6822 27.682C26.5261 26.8381 27.0002 25.6935 27.0002 24.5V20.83C27.6674 20.5941 28.2297 20.13 28.5878 19.5195C28.9459 18.9091 29.0766 18.1918 28.957 17.4943C28.8373 16.7968 28.4749 16.1641 27.9338 15.7079C27.3928 15.2518 26.7079 15.0016 26.0002 15.0016C25.2925 15.0016 24.6076 15.2518 24.0665 15.7079C23.5255 16.1641 23.1631 16.7968 23.0434 17.4943C22.9237 18.1918 23.0545 18.9091 23.4126 19.5195C23.7706 20.13 24.333 20.5941 25.0002 20.83V24.5C25.0002 25.88 23.8802 27 22.5002 27H21.0002V5.75402C21.0001 5.52199 21.0807 5.29715 21.2282 5.11802C21.4342 4.86802 21.6682 4.61802 21.9162 4.42202C22.1362 4.25002 22.5182 4.00002 23.0002 4.00002C24.7111 3.99591 26.3762 4.55305 27.7402 5.58602C28.7902 6.40202 29.6002 7.53202 29.8862 8.89802C30.5422 8.94802 31.1422 9.22002 31.6462 9.63002C32.4102 10.25 32.9662 11.18 33.3162 12.164C33.8642 13.694 34.0122 15.644 33.4442 17.304C33.5882 17.372 33.7302 17.452 33.8682 17.544C34.4182 17.91 34.8362 18.434 35.1442 19.052C35.7502 20.262 36.0002 21.95 36.0002 24C36.0002 26.282 35.1302 27.814 34.0262 28.76C33.4157 29.2835 32.6952 29.6628 31.9182 29.87C31.7182 30.986 31.1582 32.278 30.2802 33.374C29.1402 34.804 27.3722 36 25.0002 36C23.5282 36 22.2902 35.36 21.3682 34.604C21.2533 34.5103 21.1607 34.3923 21.0971 34.2584C21.0334 34.1246 21.0003 33.9782 21.0002 33.83V29ZM14.0002 13C13.735 13 13.4806 13.1054 13.2931 13.2929C13.1055 13.4805 13.0002 13.7348 13.0002 14C13.0002 14.2652 13.1055 14.5196 13.2931 14.7071C13.4806 14.8947 13.735 15 14.0002 15C14.2654 15 14.5198 14.8947 14.7073 14.7071C14.8948 14.5196 15.0002 14.2652 15.0002 14C15.0002 13.7348 14.8948 13.4805 14.7073 13.2929C14.5198 13.1054 14.2654 13 14.0002 13ZM14.0002 25C13.735 25 13.4806 25.1054 13.2931 25.2929C13.1055 25.4805 13.0002 25.7348 13.0002 26C13.0002 26.2652 13.1055 26.5196 13.2931 26.7071C13.4806 26.8947 13.735 27 14.0002 27C14.2654 27 14.5198 26.8947 14.7073 26.7071C14.8948 26.5196 15.0002 26.2652 15.0002 26C15.0002 25.7348 14.8948 25.4805 14.7073 25.2929C14.5198 25.1054 14.2654 25 14.0002 25ZM26.0002 19C26.2654 19 26.5198 18.8947 26.7073 18.7071C26.8948 18.5196 27.0002 18.2652 27.0002 18C27.0002 17.7348 26.8948 17.4805 26.7073 17.2929C26.5198 17.1054 26.2654 17 26.0002 17C25.735 17 25.4806 17.1054 25.2931 17.2929C25.1055 17.4805 25.0002 17.7348 25.0002 18C25.0002 18.2652 25.1055 18.5196 25.2931 18.7071C25.4806 18.8947 25.735 19 26.0002 19Z" fill="black"/>
</svg>
